<?xml version="1.0" encoding="UTF-8"?>
<svg id="Layer_1" data-name="Layer 1" xmlns="http://www.w3.org/2000/svg" width="3750" height="3450" viewBox="0 0 3750 3450">
  <defs>
    <style>
      .cls-1 {
        font-family: Skia-Regular, Skia;
        font-size: 300px;
        font-variation-settings: 'wght' 1, 'wdth' 1;
      }

      .cls-2, .cls-3 {
        fill: #333;
      }

      .cls-4 {
        letter-spacing: -.09em;
      }

      .cls-5 {
        letter-spacing: -.03em;
      }

      .cls-6 {
        letter-spacing: 0em;
      }

      .cls-3 {
        font-family: MyriadPro-Regular, 'Myriad Pro';
        font-size: 777px;
      }
    </style>
  </defs>
  <polygon class="cls-2" points="2967.01 2931.25 995.49 2931.25 995.49 2582.07 1023.74 2582.07 1023.74 2903.82 2938.76 2903.82 2938.76 2582.07 2967.01 2582.07 2967.01 2931.25"/>
  <polygon class="cls-2" points="2967.01 2085.02 2938.76 2085.02 2938.76 972.35 1023.74 972.35 1023.74 2047.61 995.49 2047.61 995.49 944.92 2967.01 944.92 2967.01 2085.02"/>
  <path class="cls-2" d="M1335.28,.03c-8.42-.43-84.83,1.54-175.74,200.38-39.03,85.38-98.02,214.4-70.58,362.64,9.37,50.66,4.02,107.29-2.19,172.87-7.35,77.7-15.94,169.06-.46,276.25-28.32-41.54-70.64-104.58-96.14-147.1-40.24-67.07-52.39-110.77-64.14-153.03-13.72-49.37-27.92-100.42-84.78-186l-17.5-26.33-5.42,30.9c-1.21,6.91-28.46,170.91,72.09,332.55,73.35,117.92,149.32,197.41,209.3,219.44,24.01,101.94,71.53,216.89,160.89,346.55,3.22,4.67,6.48,9.24,9.73,13.83-31.12-21.1-68.72-42.94-107.09-56.56-48.14-17.1-94.7-45.17-139.73-72.32-60.67-36.58-117.96-71.12-173.27-75.28l-33.6-2.53,23.71,23.25c5.46,5.36,135.65,131.99,296.19,201.83,82.18,35.75,187.42,69.42,207.29,75.68,9.83,11.45,19.75,22.6,29.74,33.47-60.16-27.55-149.8-55.74-243.84-39.34-158.23,27.58-187.55,36.65-188.72,37.03l-25.11,8,22.25,13.84c52.03,32.36,122.79,27.83,204.73,22.59,90.6-5.8,193.22-12.32,299.58,27.59,70.04,65.86,141.02,118.71,205.81,160.36-123.19,9.34-173.51-11.88-235.75-38.17-48.87-20.64-104.26-44.04-204.4-59.04l-22.64-3.4,9.25,20.35c1.13,2.48,28.54,61.36,106.87,104.83,70.56,39.16,197.85,72.49,404.2,10.56,12.81,7.42,25.27,14.39,37.26,20.87,148.09,80.02,258.81,107.7,263.46,108.84l6.15-23.62c-.93-.23-21.15-5.39-55.07-17.16-250.31-162.02-298.51-419.6-327.32-573.66-9.19-49.14-16.45-87.94-28.04-110.49l-9.62-18.68-12.02,17.32c-2.85,4.11-68.96,103.33,13.5,326.86,50.57,137.09,161.22,244.88,240.76,308.66-110.11-51.17-256-135.93-392.27-268.57,78.36-307.84-29.54-462.6-34.22-469.1l-14.24-19.79-7.93,22.88c-22.54,65.07-10.77,151.56,1.71,243.11,8.32,61.11,16.86,123.98,15.54,183.12-42.57-45.13-83.74-95.19-122.02-150.72-29.4-42.66-54.06-83.47-74.9-122.66,1.55-17.79,9.55-97.75,36.8-218.53,54.14-239.97,10.29-437.53,9.84-439.51l-11.51-50.39-12.91,50.06c-.27,1.07-27.63,107.63-43.49,211.9-12.01,78.9-12.62,278.55-12.11,377.8-88.27-200.89-73.73-355.81-61.4-486.1,6.21-65.65,11.59-122.57,2.62-175.33,25.9-49.75,37.4-90.52,48.52-129.98,14.36-50.93,29.21-103.58,75.35-180.08,52.67-87.32,105.93-230.39,108.17-236.44l5.72-15.43-16.86-.86Zm-423.38,850.51c-68.56-110.22-74.31-224.06-71.98-280.17,38.48,63.83,49.9,104.89,61.89,148.02,12.18,43.79,24.77,89.08,66.68,158.95,29.91,49.85,82.5,127.35,109.38,166.52-49.35-32.68-108.9-101.57-165.97-193.31Zm234.92,588.57c-109.1-47.46-206-124.01-254.93-166.28,37.26,13.02,77.01,36.99,118.41,61.94,46.1,27.8,93.78,56.54,144.34,74.5,58.12,20.65,116.15,62.74,148.69,88.79-42.58-14.36-104.31-36.25-156.5-58.95Zm168.7,365.66c-43.67-23.91-70.29-53.39-84.52-72.96,80.49,14.47,128.6,34.79,171.53,52.92,66.18,27.95,119.46,50.47,251.55,39.85-136.68,33.69-253,27.04-338.56-19.81Zm302.23-247.03c-54.13-146.75-41-236.72-27.88-278.05,5.33,19.91,10.16,45.78,15.74,75.61,20.87,111.59,51.65,276.2,159.42,422.36-57.81-58.93-115.54-133.87-147.28-219.92Zm-204.95-177.77c-10.19-74.82-19.9-146.13-10.27-202.46,24.44,51.44,66.89,177.41,26.2,377.1,.07-57.23-8.04-116.73-15.93-174.64Zm-271.55,208.33c-60.99,3.9-115.44,7.39-157.85-4.97,26.8-5.63,72.95-14.63,150.79-28.19,87.36-15.23,172.79,12.13,229.87,38.31-79.25-14.33-154.36-9.53-222.81-5.15Zm68.85-738.3c8.14-53.51,19.36-107.66,28.29-147.51,8.72,75.46,15.38,211.83-19.55,366.67-8.69,38.48-15.43,72.7-20.64,102.15,.11-105.18,2.11-256.95,11.9-321.31Zm6.51-609.56c-47.81,79.27-63.11,133.51-77.9,185.96-8.46,29.98-16.57,58.74-30.5,91.25-9.94-123.15,38.17-228.4,74.27-307.35,37.87-82.84,72.39-128.77,98.88-154.25,12.91-12.41,23.91-19.97,32.46-24.56-17.58,44.87-58.16,144.2-97.21,208.95Z"/>
  <path class="cls-2" d="M3200.79,249.96c-4.79-6.74-53.01-64.33-270.73-12.96-93.48,22.06-234.75,55.38-338.97,166.93-35.62,38.12-85.1,68.54-142.4,103.78-67.88,41.75-147.68,90.87-225.71,168.18,16.62-47.13,42.25-118.15,61.38-163.71,30.18-71.88,58.42-107.89,85.74-142.71,31.92-40.68,64.92-82.74,100.06-178.7l10.81-29.53-28.52,14.68c-6.37,3.28-156.82,82.37-227.39,258.34-51.47,128.37-70,235.32-51.38,294.9-68.54,80.67-133.35,187.35-184.63,335.2-1.85,5.32-3.59,10.62-5.35,15.93-1.77-36.82-6.89-79.07-19.18-116.9-15.41-47.47-20.91-100.42-26.23-151.62-7.16-68.99-13.93-134.14-44.28-179.24l-18.43-27.39-4.5,32.42c-1.04,7.47-24.95,184.89,16,351.02,20.96,85.03,57.69,186.55,64.7,205.66-3.34,14.54-6.39,28.98-9.17,43.3-14.22-63.09-45.91-149.26-116.65-211.61-119.03-104.91-144.33-121.93-145.35-122.61l-21.84-14.44,2.28,25.56c5.33,59.78,52.2,111.45,106.46,171.3,60,66.17,127.93,141.14,160.25,247.32-11.01,94.07-10.84,180.92-5.3,256.17-82.77-89.08-96.16-140.74-112.68-204.67-12.97-50.19-27.67-107.08-76.52-193.28l-11.04-19.49-10.97,19.53c-1.34,2.38-32.66,59.39-20.34,146.17,11.09,78.18,61.55,196.44,237.97,317.43,1.76,14.38,3.67,28.22,5.7,41.4,25.05,162.75,70.01,264.83,71.91,269.1l23.03-9.68c-.38-.85-8.5-19.57-19.59-52.84-20.49-291.42,160.29-485.65,268.43-601.8,34.49-37.04,61.73-66.3,73.05-88.98l9.38-18.8-21.47,1.32c-5.09,.31-126.39,9.99-258.48,209.79-81.01,122.54-101.47,273.43-105,373.54-25.42-115.93-45.25-279.89-20.15-465.64,299.01-127.51,359.46-304.94,361.92-312.51l7.46-23.03-23.51,7.86c-66.85,22.36-130.24,84.18-197.34,149.63-44.79,43.68-90.89,88.61-139.94,123.67,10.85-60.28,26.58-122.5,48.55-185.82,16.88-48.65,35.13-92.51,54.4-132.46,15.46-9.66,85.59-52.29,200.77-105.01,228.85-104.74,363.31-259,364.65-260.55l34.1-39.59-48.73,20.61c-1.04,.44-104.68,44.4-199.45,95.81-71.71,38.89-234.99,160.22-315.68,221.17,110.07-190.47,245.36-273.79,359.2-343.79,57.36-35.27,107.09-65.86,144.67-104.95,56.4-10.42,96.68-26.45,135.67-41.96,50.32-20.02,102.34-40.72,192.91-51.89,103.39-12.75,252.63-59.05,258.93-61.02l16.08-5.01-9.59-13.5Zm-952.32,193.12c48.11-119.99,137.5-193.86,184.71-226.31-28.61,68.55-55.15,102.38-83.03,137.92-28.31,36.09-57.59,73.4-89.02,148.27-22.43,53.43-53.59,141.16-69.15,185.74-3.44-57.91,16.44-145.75,56.5-245.63Zm-336.97,539.81c-27.83-112.9-24.47-234.15-19.84-297.58,12.11,36.61,16.8,81.82,21.69,128.89,5.44,52.43,11.08,106.64,27.27,156.5,18.61,57.31,19.66,127.64,18.26,168.57-14.26-41.52-34.06-102.37-47.37-156.38Zm-195.47,352.87c-7.13-48.18,.69-86.65,7.98-109.54,37.3,70.75,50.07,120.17,61.46,164.26,17.56,67.97,31.7,122.7,120.95,217.85-110.88-84.61-176.41-178.15-190.38-272.57Zm385.96,81.83c86.73-131.18,168.15-175.96,209.88-191.08-12.99,16.25-31.16,35.75-52.1,58.24-78.33,84.13-193.87,208.24-247.39,380.32,12.82-80.43,38.76-170.56,89.61-247.48Zm20.03-266.13c54.84-53.48,107.1-104.46,158.94-131.41-27.07,50.19-103.97,159.7-291.74,250.21,46.74-34.86,90.35-77.4,132.79-118.8Zm-335.66-81.83c-40.39-44.55-76.45-84.31-92.24-124.48,20.94,17.18,56.44,47.2,115,98.81,65.72,57.92,95.51,140.34,108.97,200.23-36.65-69.72-86.4-124.58-131.72-174.57Zm644.46-397.43c48.63-26.38,99.66-50.79,137.63-68.23-56.26,52.74-163.47,141.07-311.14,208.65-36.7,16.79-68.73,32.48-95.95,46.44,85.9-64.08,210.96-155.13,269.45-186.86Zm501.38-366.86c-93.86,11.57-147.44,32.89-199.27,53.51-29.62,11.78-58.05,23.09-93.06,32.2,94.43-82.78,209.67-109.97,296.11-130.36,90.7-21.4,149.24-22.86,186.19-18.02,18,2.36,30.88,6.21,39.84,9.99-47.33,13.85-153.15,43.22-229.81,52.68Z"/>
  <text class="cls-3" transform="translate(125.21 2575.72)"><tspan x="0" y="0">H</tspan><tspan class="cls-6" x="506.6" y="0">A</tspan><tspan x="979.02" y="0">MI</tspan><tspan class="cls-4" x="1789.41" y="0">L</tspan><tspan class="cls-5" x="2087.77" y="0">T</tspan><tspan x="2452.96" y="0">ON</tspan></text>
  <text class="cls-1" transform="translate(301.98 3227.3)"><tspan x="0" y="0">DIAGNOSTIC SERVICES</tspan></text>
</svg>